<!DOCTYPE svg PUBLIC "-//W3C//DTD SVG 1.1//EN" "http://www.w3.org/Graphics/SVG/1.1/DTD/svg11.dtd">
<!-- Uploaded to: SVG Repo, www.svgrepo.com, Transformed by: SVG Repo Mixer Tools -->
<svg width="800px" height="800px" viewBox="-6 0 48 48" xmlns="http://www.w3.org/2000/svg" fill="#ffffff" stroke="#ffffff" stroke-width="0.00048000000000000007">
<g id="SVGRepo_bgCarrier" stroke-width="0"/>
<g id="SVGRepo_tracerCarrier" stroke-linecap="round" stroke-linejoin="round"/>
<g id="SVGRepo_iconCarrier"> <path id="document" d="M451,471a5.005,5.005,0,0,1-5-5V428a5.006,5.006,0,0,1,5-5h21.07a.9.9,0,0,1,.489.138.876.876,0,0,1,.219.157l8.908,8.977a1,1,0,0,1,.314.7c0,.008,0,.017,0,.025v33a5.006,5.006,0,0,1-5,5Zm-3-43v38a3,3,0,0,0,3,3h26a3,3,0,0,0,3-3V433h-4a3.626,3.626,0,0,1-4-4v-4H451A3,3,0,0,0,448,428Zm25,1a3,3,0,0,0,3,3h3l-6-6Zm-20,32a1,1,0,1,1,0-2h12a1,1,0,0,1,0,2Zm0-7a1,1,0,1,1,0-2h22a1,1,0,1,1,0,2Zm0-7a1,1,0,1,1,0-2h22a1,1,0,1,1,0,2Zm0-7a1,1,0,0,1,0-2h22a1,1,0,0,1,0,2Z" transform="translate(-446 -423)" fill="#ffffff"/> </g>
</svg>